<?xml version="1.0" standalone="no"?>
<!DOCTYPE svg PUBLIC "-//W3C//DTD SVG 20010904//EN"
 "http://www.w3.org/TR/2001/REC-SVG-20010904/DTD/svg10.dtd">
<svg version="1.0" xmlns="http://www.w3.org/2000/svg"
 width="516.000000pt" height="980.000000pt" viewBox="0 0 516.000000 980.000000"
 preserveAspectRatio="xMidYMid meet">

<g transform="translate(0.000000,980.000000) scale(0.100000,-0.100000)"
fill="#000000" stroke="none">
<path d="M2437 7354 c-1335 -1345 -2427 -2450 -2427 -2454 0 -4 1092 -1109
2427 -2454 l2428 -2446 146 146 146 146 -686 682 c-377 375 -1421 1411 -2319
2301 -897 891 -1632 1622 -1632 1625 0 3 735 734 1633 1625 897 890 1941 1926
2318 2301 l686 682 -146 146 -146 146 -2428 -2446z"/>
</g>
</svg>
