<svg xmlns="http://www.w3.org/2000/svg" version="1.0" width="516.000000pt" height="980.000000pt" viewBox="0 0 516.000000 980.000000" preserveAspectRatio="xMidYMid meet">

<g transform="translate(0.000000,980.000000) scale(0.100000,-0.100000)" fill="#ffffff" stroke="none">
<path d="M2437 7354 c-1335 -1345 -2427 -2450 -2427 -2454 0 -4 1092 -1109 2427 -2454 l2428 -2446 146 146 146 146 -686 682 c-377 375 -1421 1411 -2319 2301 -897 891 -1632 1622 -1632 1625 0 3 735 734 1633 1625 897 890 1941 1926 2318 2301 l686 682 -146 146 -146 146 -2428 -2446z" fill="#ffffff"/>
</g>
</svg>